<?xml version="1.0" encoding="UTF-8" standalone="no"?>
<!-- Created with Inkscape (http://www.inkscape.org/) -->

<svg
   xmlns:dc="http://purl.org/dc/elements/1.1/"
   xmlns:cc="http://creativecommons.org/ns#"
   xmlns:rdf="http://www.w3.org/1999/02/22-rdf-syntax-ns#"
   xmlns:svg="http://www.w3.org/2000/svg"
   xmlns="http://www.w3.org/2000/svg"
   xmlns:sodipodi="http://sodipodi.sourceforge.net/DTD/sodipodi-0.dtd"
   xmlns:inkscape="http://www.inkscape.org/namespaces/inkscape"
   width="69.30574mm"
   height="16.709925mm"
   viewBox="0 0 245.57152 59.208394"
   id="svg10830"
   version="1.1"
   inkscape:version="0.91 r13725"
   sodipodi:docname="logo.svg">
  <defs
     id="defs10832" />
  <sodipodi:namedview
     id="base"
     pagecolor="#ffffff"
     bordercolor="#666666"
     borderopacity="1.0"
     inkscape:pageopacity="0.0"
     inkscape:pageshadow="2"
     inkscape:zoom="0.35"
     inkscape:cx="352.07148"
     inkscape:cy="-251.94641"
     inkscape:document-units="px"
     inkscape:current-layer="layer1"
     showgrid="false"
     fit-margin-top="0"
     fit-margin-left="0"
     fit-margin-right="0"
     fit-margin-bottom="0"
     inkscape:window-width="1024"
     inkscape:window-height="519"
     inkscape:window-x="0"
     inkscape:window-y="0"
     inkscape:window-maximized="1" />
  <metadata
     id="metadata10835">
    <rdf:RDF>
      <cc:Work
         rdf:about="">
        <dc:format>image/svg+xml</dc:format>
        <dc:type
           rdf:resource="http://purl.org/dc/dcmitype/StillImage" />
        <dc:title></dc:title>
      </cc:Work>
    </rdf:RDF>
  </metadata>
  <g
     inkscape:label="Layer 1"
     inkscape:groupmode="layer"
     id="layer1"
     transform="translate(-22.928524,-8.4722949)">
    <g
       transform="translate(-251.98706,-340.6997)"
       id="g10825">
      <path
         inkscape:connector-curvature="0"
         id="path3377"
         d="m 502.84367,407.99149 c -6.54038,-1.49441 -9.82937,-5.6962 -7.9603,-10.16952 0.48897,-1.17026 2.68648,-3.41272 3.66345,-3.73837 0.28994,-0.0967 0.0196,-0.59924 -0.7201,-1.33899 -1.0136,-1.0136 -1.18426,-1.45921 -1.18426,-3.09212 0,-1.58649 0.19405,-2.12886 1.15204,-3.21995 l 1.15204,-1.3121 -1.32571,-1.73677 c -1.55685,-2.03958 -1.9382,-3.53505 -1.88582,-7.39521 0.0598,-4.40866 1.97181,-7.31372 6.01561,-9.14015 2.72171,-1.22929 7.56596,-1.23489 10.21632,-0.0118 1.75825,0.8114 1.91864,0.82725 2.27029,0.22434 0.20811,-0.3568 0.86427,-1.2184 1.45813,-1.91467 1.26657,-1.48498 2.8522,-1.68539 4.02842,-0.50918 1.28726,1.28727 1.03105,1.92088 -1.41894,3.50895 -1.79785,1.16536 -1.89195,1.49667 -0.94814,3.33839 0.44519,0.86874 0.70331,2.42523 0.79311,4.78257 0.11388,2.98956 0.0139,3.74096 -0.69168,5.19849 -1.08625,2.2439 -3.65708,4.45979 -6.08322,5.24335 -2.1384,0.69063 -6.19628,0.83683 -7.67042,0.27636 -0.73285,-0.27863 -1.07028,-0.20342 -1.57133,0.35023 -0.84201,0.93042 -0.60134,1.97063 0.58779,2.54057 0.52859,0.25335 3.49082,0.89603 6.58272,1.42819 5.90762,1.01679 7.34766,1.59498 9.06984,3.64167 1.77795,2.11298 2.10358,5.69253 0.75728,8.32465 -0.79442,1.55315 -2.94145,3.21933 -5.27205,4.09132 -2.79959,1.04746 -7.90862,1.33956 -11.01507,0.62976 z m 8.03258,-4.34849 c 1.92412,-0.87377 2.79341,-2.06143 2.79341,-3.81646 0,-2.66802 -1.70255,-3.86976 -6.43294,-4.54065 -2.38815,-0.3387 -2.83649,-0.29765 -4.16786,0.38156 -3.54661,1.80934 -3.49951,6.12102 0.0863,7.89594 2.08795,1.03351 5.54213,1.06912 7.72112,0.0796 z m -0.99929,-21.14447 c 2.2904,-1.67659 3.0479,-6.48301 1.54383,-9.79582 -1.2073,-2.65918 -4.51269,-3.60311 -7.09772,-2.02692 -1.81272,1.10528 -2.38326,2.54038 -2.38326,5.99469 0,2.47855 0.14689,3.20977 0.8589,4.27559 1.693,2.53426 4.80468,3.21674 7.07825,1.55246 z M 276.2348,394.83381 c -0.41622,-0.23603 -0.88186,-0.61396 -1.03476,-0.83986 -0.1529,-0.22589 -0.2806,-9.64797 -0.28379,-20.93795 -0.006,-20.02673 0.0127,-20.54569 0.75097,-21.284 0.72416,-0.72416 1.26128,-0.75677 12.46516,-0.75677 11.67018,0 11.71032,0.003 12.29743,0.84096 0.7543,1.07692 0.7543,2.9169 0,3.99382 -0.58137,0.83002 -0.70932,0.84095 -9.83794,0.84095 l -9.24891,0 0,7.00008 0,7.00007 5.28404,0 c 5.83315,0 6.06743,0.099 6.06743,2.56515 0,2.05052 -0.82052,2.35382 -6.3677,2.35382 l -4.98377,0 -0.006,8.98658 c -0.003,4.94261 -0.13089,9.17392 -0.28378,9.40291 -0.80346,1.20328 -3.38087,1.64951 -4.81858,0.83424 z m 28.94624,0.12053 c -3.58175,-1.17761 -6.70384,-3.84871 -8.16396,-6.98468 -0.82917,-1.78085 -0.90982,-2.44044 -0.90982,-7.44061 0,-5.00211 0.0804,-5.6593 0.91098,-7.44312 1.1601,-2.49162 3.61271,-4.8896 6.27089,-6.13121 2.98772,-1.39555 7.2468,-1.38412 10.29067,0.0276 2.62073,1.21548 5.13384,3.64985 6.37797,6.17812 0.84887,1.72502 0.92613,2.324 0.92613,7.17939 0,4.93915 -0.0677,5.44187 -1.00194,7.43444 -2.08847,4.45462 -6.11791,7.17636 -10.9171,7.37412 -1.56082,0.0643 -3.26354,-0.023 -3.78382,-0.19407 z m 6.71848,-6.41347 c 2.01957,-1.43806 2.74108,-3.53179 2.74108,-7.95425 0,-4.45718 -0.42011,-5.78386 -2.37502,-7.5003 -2.31524,-2.03281 -5.24911,-2.11885 -7.50563,-0.22011 -1.91355,1.61015 -2.58809,3.55149 -2.59766,7.47614 -0.0124,5.08001 0.67027,6.71367 3.58632,8.58251 1.50312,0.96331 4.52361,0.77475 6.15091,-0.38399 z m 20.52504,6.1397 c -2.25143,-0.81266 -4.94293,-2.81434 -6.16651,-4.58608 -2.03274,-2.94338 -2.31009,-4.08527 -2.3234,-9.56544 -0.0115,-4.73811 0.0598,-5.26298 0.9839,-7.24525 1.27022,-2.72466 3.59623,-5.04883 6.31488,-6.30987 2.84526,-1.31977 7.27671,-1.39495 9.98222,-0.16934 5.84308,2.64693 8.10847,6.971 7.78356,14.8569 -0.13384,3.24853 -0.34357,4.37206 -1.14144,6.11483 -1.19488,2.60997 -3.39682,4.87699 -6.05533,6.23432 -2.54641,1.3001 -6.79179,1.60338 -9.37788,0.66993 z m 7.47525,-6.1397 c 2.01956,-1.43806 2.74107,-3.53179 2.74107,-7.95425 0,-4.45718 -0.4201,-5.78386 -2.37501,-7.5003 -2.40541,-2.11197 -5.32361,-2.11861 -7.71657,-0.0176 -0.75493,0.66284 -1.60265,1.75574 -1.88382,2.42867 -0.60132,1.43917 -0.68711,7.59951 -0.13357,9.59206 0.39139,1.40888 2.28979,3.62157 3.58979,4.18409 1.31914,0.57081 4.51697,0.1653 5.77811,-0.7327 z m 18.75219,5.8064 c -2.20205,-1.11844 -4.2037,-3.14965 -5.49027,-5.57136 -0.77593,-1.46052 -0.87669,-2.24566 -0.99449,-7.74954 -0.1284,-5.99882 -0.1098,-6.1718 0.90726,-8.43811 3.18212,-7.09071 11.67255,-8.96223 16.37275,-3.609 l 1.19392,1.3598 0.006,-9.75651 c 0.003,-5.36608 0.13089,-9.94386 0.28379,-10.17284 0.93836,-1.40533 3.66009,-1.67093 5.14593,-0.50216 l 0.99699,0.78423 0,21.07775 c 0,23.3305 0.0883,22.49584 -2.43052,22.96838 -1.26006,0.23639 -2.76771,-0.2686 -3.33402,-1.11672 -0.1529,-0.22899 -0.28249,-1.01229 -0.28798,-1.74068 l -0.01,-1.32433 -0.96936,1.22996 c -1.58534,2.01155 -4.00842,3.20242 -6.90199,3.3921 -2.17524,0.14259 -2.79806,0.0273 -4.48781,-0.83097 z m 8.80134,-5.67966 c 2.71301,-1.58992 3.18783,-2.7721 3.18783,-7.93685 0,-3.31552 -0.15577,-4.767 -0.61557,-5.73596 -1.65766,-3.49327 -6.35949,-4.57348 -9.26507,-2.12859 -1.91356,1.61015 -2.5881,3.55149 -2.59767,7.47614 -0.01,3.91834 0.37688,5.59916 1.59078,6.91931 2.31454,2.51713 4.97476,3.00287 7.6997,1.40595 z m 27.97187,6.25494 c -5.32273,-1.1619 -8.47454,-4.22569 -9.53107,-9.26488 -0.60898,-2.90455 -0.6724,-21.81972 -0.0838,-25.00358 1.01786,-5.5061 4.08084,-8.54307 9.73894,-9.65623 6.59384,-1.29726 13.57576,1.40346 16.02142,6.19736 1.0656,2.08875 1.34513,5.2642 0.56783,6.45052 -0.75469,1.1518 -2.49198,1.56375 -4.20729,0.99765 -1.32266,-0.43651 -1.45953,-0.65233 -1.92387,-3.03346 -0.65916,-3.38019 -3.15175,-5.27364 -6.96263,-5.28904 -2.82811,-0.0114 -4.92754,1.05941 -6.10393,3.11338 -0.90955,1.58807 -0.92245,1.74559 -1.03649,12.65239 -0.0752,7.18926 0.0294,11.5825 0.29971,12.58618 1.10845,4.11647 5.88685,6.12924 10.03209,4.22575 3.02602,-1.38956 3.97301,-3.42668 3.97301,-8.54658 l 0,-3.60679 -3.37841,0 c -2.56678,0 -3.52126,-0.14284 -3.97302,-0.5946 -0.70084,-0.70084 -0.79226,-3.21858 -0.14054,-3.87031 0.31705,-0.31704 2.36824,-0.45406 6.79757,-0.45406 6.09801,0 6.36031,0.0314 6.77762,0.81115 0.29471,0.55067 0.38767,2.83641 0.28949,7.11807 -0.14275,6.22548 -0.16057,6.33934 -1.37996,8.81627 -1.40426,2.85246 -3.22931,4.5125 -6.20347,5.64259 -2.20576,0.83812 -7.26388,1.21232 -9.57317,0.70822 z m 21.284,-0.38479 -1.04055,-0.82026 0,-13.01701 0,-13.01701 1.11635,-0.57729 c 2.82309,-1.45987 5.31615,-0.0547 5.31615,2.99647 0,1.61012 0.11113,1.79778 1.79731,3.03486 0.98852,0.72524 2.64868,1.60079 3.68923,1.94566 2.5412,0.84222 2.83786,1.13645 2.83786,2.81449 0,1.70808 -1.51784,3.76668 -2.7769,3.76622 -0.44975,-1.6e-4 -1.88193,-0.50374 -3.18262,-1.11907 l -2.36488,-1.11879 0,6.94209 c 0,7.93808 -0.15928,8.43068 -2.84174,8.78851 -1.17934,0.15732 -1.73734,0.0219 -2.55021,-0.61887 z m 51.41642,-0.036 -0.99699,-0.78423 0,-7.1618 c 0,-3.93899 -0.0426,-7.15964 -0.0946,-7.15701 -0.052,0.003 -1.09766,0.51346 -2.32362,1.13515 -1.22596,0.62169 -2.59282,1.13035 -3.03746,1.13035 -1.28543,0 -2.43184,-1.04123 -2.91241,-2.64521 -0.61435,-2.05055 0.0795,-3.01086 2.85595,-3.9525 1.19926,-0.40674 2.90622,-1.38911 3.83637,-2.20786 1.47438,-1.29779 1.67646,-1.66446 1.68156,-3.05103 0.007,-1.78995 0.22107,-2.22929 1.38826,-2.84366 1.05596,-0.55581 2.58843,-0.55581 3.64438,0 1.06906,0.56271 1.38115,1.05577 1.38827,2.19328 l 0.006,0.92559 1.22974,-1.16702 c 3.9451,-3.74385 9.35196,-3.58439 13.32948,0.39314 3.31897,3.31896 3.60313,4.54449 3.60313,15.53939 0,7.61502 -0.0957,9.28927 -0.55273,9.66856 -0.83568,0.69355 -3.2981,0.86307 -4.36624,0.30058 l -0.94596,-0.49815 -0.19224,-8.88163 c -0.21415,-9.89347 -0.33319,-10.40465 -2.87431,-12.34285 -1.77385,-1.35299 -4.83207,-1.49519 -6.43546,-0.29923 -2.58561,1.92858 -2.59492,1.96935 -2.71985,11.90992 l -0.11362,9.04193 -0.97796,0.76926 c -1.25679,0.98859 -3.15183,0.98217 -4.41949,-0.015 z m -26.49549,-3.28338 c -3.38972,-5.26008 -10.06943,-17.23409 -10.06943,-18.0504 0,-1.24412 1.91005,-2.47345 3.84615,-2.47543 1.38311,-10e-4 1.39571,0.0134 4.89275,5.76892 1.92834,3.17368 3.70415,6.06826 3.94624,6.4324 0.37946,0.57077 0.97672,-0.22497 4.33108,-5.77033 3.819,-6.31349 3.91486,-6.4324 5.18599,-6.4324 2.67079,0 4.72192,1.85468 3.87075,3.50003 -1.09138,2.10972 -9.98986,17.19141 -10.49286,17.78397 -0.40537,0.47753 -1.12453,0.66217 -2.57919,0.66217 -1.91604,0 -2.06289,-0.0711 -2.93148,-1.41893 z m -21.89492,-26.19699 c -1.16944,-0.91988 -1.54799,-2.26319 -1.02525,-3.63812 0.53841,-1.41611 1.43846,-2.01731 3.04144,-2.03157 1.80693,-0.0161 2.99842,1.23614 2.99842,3.15121 0,2.76185 -2.8717,4.2041 -5.01461,2.51848 z m 45.77078,-0.0106 c -1.26499,-0.99504 -1.61859,-2.64585 -0.87484,-4.08412 0.65374,-1.26419 1.27009,-1.587 3.03004,-1.587 1.67622,0 2.87288,1.31761 2.87288,3.16324 0,2.77074 -2.87249,4.20347 -5.02808,2.50788 z"
         style="fill:#800000" />
      <g
         transform="translate(-66.496836,43.393705)"
         id="g10809">
        <path
           inkscape:connector-curvature="0"
           id="path10811"
           d="m 482.51616,354.53951 c -2.19853,-0.59497 -2.19763,-0.58884 -2.19763,-14.93575 0,-15.01868 -0.0978,-14.56675 3.15372,-14.56675 2.65783,0 3.23804,0.49751 3.23804,2.7765 0,1.81455 0.1265,2.06077 1.82861,3.55903 1.12896,0.99374 2.79704,1.93188 4.35966,2.45189 2.52965,0.84181 3.00118,1.30262 2.99838,2.93018 -0.002,1.20675 -1.35853,3.30741 -2.29356,3.55192 -0.95105,0.24871 -3.91425,-0.71034 -5.35683,-1.73374 -0.58321,-0.41375 -1.16745,-0.75227 -1.29832,-0.75227 -0.13087,0 -0.23794,3.47761 -0.23794,7.72803 0,6.86331 -0.0783,7.79571 -0.69911,8.33284 -0.96095,0.83135 -2.07782,1.04165 -3.49502,0.65812 z m 53.83007,-0.13674 -1.29831,-0.5643 0,-7.74265 c 0,-4.25846 -0.11454,-7.85719 -0.25452,-7.99718 -0.13999,-0.13998 -0.72424,0.0785 -1.29833,0.48538 -1.71891,1.21844 -4.76504,2.10052 -5.63887,1.63287 -1.23251,-0.65962 -1.99643,-2.07244 -1.99643,-3.69228 0,-1.28168 0.17078,-1.5866 1.09859,-1.96133 6.23649,-2.51891 8.08956,-4.11006 8.08956,-6.94622 0,-2.05145 0.64937,-2.58005 3.1696,-2.58005 2.13307,0 3.36509,1.13502 2.93359,2.70261 -0.1654,0.60087 -0.25801,1.6318 -0.20582,2.29095 0.27372,3.45684 0.53009,21.97473 0.31602,22.82762 -0.15914,0.63406 -0.74639,1.20195 -1.62071,1.56726 -1.64751,0.68838 -1.65859,0.6883 -3.29437,-0.0227 z m -27.52344,-2.50654 c -0.85332,-0.54638 -11.79136,-19.63283 -11.65548,-20.33836 0.18557,-0.96362 2.61117,-2.52601 3.92158,-2.52601 1.37834,0 1.54811,0.21347 5.98228,7.52232 2.99047,4.92918 3.80975,6.02045 4.19883,5.59278 0.26588,-0.29224 2.15385,-3.28786 4.19549,-6.65693 2.04164,-3.36908 3.95856,-6.22018 4.25979,-6.33579 1.66306,-0.63816 4.93603,1.10699 4.93603,2.63192 0,0.83399 -10.90739,19.59318 -11.67591,20.08093 -0.63528,0.40319 -3.5466,0.42356 -4.16261,0.0291 z m -22.91147,-28.34379 c -2.42752,-0.8712 -3.17074,-3.77019 -1.41636,-5.52456 2.90225,-2.90225 7.27414,1.32002 4.51236,4.35792 -0.97071,1.06776 -2.14185,1.50907 -3.096,1.16664 z m 47.97438,-0.15307 c -2.20559,-0.87335 -2.75401,-3.6706 -1.0531,-5.37149 2.90223,-2.90225 7.27413,1.32002 4.51235,4.35792 -1.09229,1.20151 -2.17985,1.52016 -3.45925,1.01357 z"
           style="fill:#78a2cc;fill-opacity:1" />
      </g>
    </g>
  </g>
</svg>
